<?xml version="1.0" encoding="UTF-8" standalone="no"?>
<!-- Created with Inkscape (http://www.inkscape.org/) -->

<svg
   xmlns:dc="http://purl.org/dc/elements/1.1/"
   xmlns:cc="http://creativecommons.org/ns#"
   xmlns:rdf="http://www.w3.org/1999/02/22-rdf-syntax-ns#"
   xmlns:svg="http://www.w3.org/2000/svg"
   xmlns="http://www.w3.org/2000/svg"
   xmlns:sodipodi="http://sodipodi.sourceforge.net/DTD/sodipodi-0.dtd"
   xmlns:inkscape="http://www.inkscape.org/namespaces/inkscape"
   width="512"
   height="512"
   viewBox="0 0 512.00001 512.00001"
   id="svg2"
   version="1.1"
   inkscape:version="0.91 r13725"
   sodipodi:docname="everseer2.svg"
   inkscape:export-filename="/home/gabmus/Sviluppo/Electron/everseer/icon2.png"
   inkscape:export-xdpi="90"
   inkscape:export-ydpi="90">
  <defs
     id="defs4" />
  <sodipodi:namedview
     id="base"
     pagecolor="#ffffff"
     bordercolor="#666666"
     borderopacity="1.0"
     inkscape:pageopacity="0.0"
     inkscape:pageshadow="2"
     inkscape:zoom="0.7"
     inkscape:cx="236.73837"
     inkscape:cy="225.50807"
     inkscape:document-units="px"
     inkscape:current-layer="layer1"
     showgrid="false"
     units="px"
     inkscape:snap-page="false"
     inkscape:snap-bbox="true"
     inkscape:snap-bbox-edge-midpoints="false"
     inkscape:object-nodes="true"
     inkscape:snap-bbox-midpoints="true"
     inkscape:object-paths="false"
     inkscape:bbox-nodes="false"
     inkscape:snap-intersection-paths="true"
     inkscape:snap-global="true"
     inkscape:snap-nodes="true"
     inkscape:snap-center="false"
     inkscape:window-width="1366"
     inkscape:window-height="700"
     inkscape:window-x="0"
     inkscape:window-y="30"
     inkscape:window-maximized="1"
     inkscape:snap-others="false" />
  <metadata
     id="metadata7">
    <rdf:RDF>
      <cc:Work
         rdf:about="">
        <dc:format>image/svg+xml</dc:format>
        <dc:type
           rdf:resource="http://purl.org/dc/dcmitype/StillImage" />
        <dc:title />
      </cc:Work>
    </rdf:RDF>
  </metadata>
  <g
     inkscape:label="Livello 1"
     inkscape:groupmode="layer"
     id="layer1"
     transform="translate(0,-540.36216)">
    <g
       id="g4143"
       transform="matrix(1.2485072,0,0,1.2485072,-63.617839,-37.985796)">
      <rect
         y="579.61078"
         x="169.70563"
         height="173.74623"
         width="177.78685"
         id="rect4273"
         style="opacity:1;fill:#4d4d4d;fill-opacity:1;stroke:none;stroke-width:25;stroke-miterlimit:4;stroke-dasharray:none;stroke-opacity:1" />
      <path
         inkscape:connector-curvature="0"
         id="path4263"
         d="m 256.06751,632.45849 c -0.41412,0.01 -0.82967,0.0403 -1.24716,0.093 -3.33978,0.4226 -5.71993,1.87887 -7.68806,3.63418 -1.96813,1.75532 -3.69117,3.9931 -5.46127,6.91298 -3.54039,5.83976 -7.18254,14.43098 -11.1588,26.78038 -3.89789,12.10547 -7.387,19.43698 -9.84874,22.59834 -1.24538,-1.7716 -2.95228,-4.79297 -4.50696,-8.96488 -1.98635,-5.33053 -3.9253,-11.86352 -5.93052,-18.29992 -2.00524,-6.4364 -4.06528,-12.76833 -6.43462,-17.89379 -1.18459,-2.56273 -2.42885,-4.82183 -3.9337,-6.74164 -1.505,-1.9198 -3.13628,-3.68542 -6.4975,-4.7257 -1.68062,-0.52014 -3.87709,-0.69147 -5.79202,-0.35961 -1.91491,0.33185 -3.45026,1.03995 -4.718,1.85729 -2.53552,1.6347 -4.37018,3.81168 -6.34948,6.84528 -3.95858,6.06722 -8.12099,15.664 -12.97295,30.35534 l 10.5604,1.57382 c 4.78099,-14.47643 8.95197,-23.84365 12.32415,-29.01208 1.40517,-2.15366 2.48535,-3.11026 3.27552,-3.76745 0.30346,0.25148 0.18851,0.10094 0.59527,0.6198 0.9919,1.26527 2.10344,3.19286 3.17467,5.5105 2.14277,4.63531 4.18912,10.83671 6.17951,17.22532 1.99023,6.38863 3.93724,12.97423 6.02503,18.57705 2.08778,5.6028 3.81178,10.04122 7.52423,13.23576 0.92819,0.79865 2.06585,1.57759 3.77,2.12171 1.70433,0.54412 4.07352,0.67891 5.97779,0.2496 3.80887,-0.85859 5.53254,-2.74606 7.31007,-5.02607 3.55522,-4.56005 6.86292,-12.07906 10.84402,-24.44292 3.90499,-12.12807 7.49295,-20.4497 10.60133,-25.57674 1.55419,-2.56353 3.0092,-4.32265 4.08495,-5.28205 0.62712,-0.55936 0.46232,-0.42709 0.611,-0.50345 0.53408,0.39593 1.32844,1.08519 2.20775,2.28458 1.98492,2.70729 4.06383,7.06748 5.94005,11.99406 3.7526,9.85314 6.86275,22.01035 9.63766,30.08458 0.69373,2.01855 1.36519,3.78392 2.07231,5.27145 0.70727,1.48752 1.12622,2.6036 2.82827,3.96841 0.85112,0.6824 2.6738,1.76394 5.40467,1.63305 2.73089,-0.13089 4.26348,-1.33023 5.00154,-2.09208 1.47582,-1.52373 1.83027,-2.83492 2.42192,-4.84205 2.19727,-7.45299 4.44503,-17.02019 7.20928,-25.75444 2.76426,-8.73426 6.37012,-16.74901 9.73215,-20.14028 1.68094,-1.69564 2.52609,-1.799 2.7054,-1.79595 0.17949,0.003 2.06264,0.37134 5.0046,2.99746 5.19359,4.63584 12.36628,15.08478 20.92868,32.88107 l 0,-21.59988 c -4.34103,-7.08254 -8.36163,-12.15101 -12.28307,-15.65152 -3.87402,-3.45796 -8.08186,-5.80337 -13.37623,-5.89337 -5.29421,-0.09 -9.30692,2.33412 -11.98393,5.03455 -5.3542,5.40086 -8.46081,13.65501 -11.31005,22.65756 -1.96732,6.216 -3.44105,12.03699 -4.9983,17.85147 -2.3987,-7.60157 -5.12232,-17.50672 -8.51323,-26.4102 -1.96184,-5.15132 -4.07591,-9.7993 -6.71794,-13.40289 -1.32101,-1.80179 -2.73508,-3.36892 -4.78093,-4.66223 -1.79026,-1.13164 -4.54985,-2.07312 -7.44876,-2.00747 z"
         style="color:#000000;font-style:normal;font-variant:normal;font-weight:normal;font-stretch:normal;font-size:medium;line-height:normal;font-family:sans-serif;text-indent:0;text-align:start;text-decoration:none;text-decoration-line:none;text-decoration-style:solid;text-decoration-color:#000000;letter-spacing:normal;word-spacing:normal;text-transform:none;direction:ltr;block-progression:tb;writing-mode:lr-tb;baseline-shift:baseline;text-anchor:start;white-space:normal;clip-rule:nonzero;display:inline;overflow:visible;visibility:visible;opacity:1;isolation:auto;mix-blend-mode:normal;color-interpolation:sRGB;color-interpolation-filters:linearRGB;solid-color:#000000;solid-opacity:1;fill:#ff6600;fill-opacity:1;fill-rule:evenodd;stroke:none;stroke-width:6.70928526;stroke-linecap:butt;stroke-linejoin:miter;stroke-miterlimit:4;stroke-dasharray:none;stroke-dashoffset:0;stroke-opacity:1;color-rendering:auto;image-rendering:auto;shape-rendering:auto;text-rendering:auto;enable-background:accumulate" />
      <path
         id="path4136"
         d="m 255.99999,544.49957 c -113.24275,0 -205.044866,123.7769 -205.044866,123.7769 0,0 91.802116,123.77689 205.044866,123.77689 113.24276,0 205.04488,-123.77689 205.04488,-123.77689 0,0 -91.80213,-123.7769 -205.04488,-123.7769 z m 0,45.53657 a 78.240529,78.240529 0 0 1 78.24033,78.24033 78.240529,78.240529 0 0 1 -78.24033,78.24033 78.240529,78.240529 0 0 1 -78.24032,-78.24033 78.240529,78.240529 0 0 1 78.24032,-78.24033 z"
         style="opacity:1;fill:#5f8dd3;fill-opacity:1;stroke:none;stroke-width:3.11500001;stroke-miterlimit:4;stroke-dasharray:none;stroke-opacity:1"
         inkscape:connector-curvature="0" />
    </g>
  </g>
</svg>
